<svg xmlns="http://www.w3.org/2000/svg" viewBox="-2.085 -2.085 100 100" id="Computer-Chip--Streamline-Ultimate" height="100" width="100"><desc>Computer Chip Streamline Icon: https://streamlinehq.com</desc><defs></defs><path d="M21.961041666666667 17.968125h51.90791666666667s3.992916666666667 0 3.992916666666667 3.992916666666667v51.90791666666667s0 3.992916666666667 -3.992916666666667 3.992916666666667h-51.90791666666667s-3.992916666666667 0 -3.992916666666667 -3.992916666666667v-51.90791666666667s0 -3.992916666666667 3.992916666666667 -3.992916666666667" stroke="#080808" stroke-linecap="round" stroke-linejoin="round" fill="#a9d6d6" stroke-width="4.17"></path><path d="m47.915000000000006 1.9964583333333334 0 15.971666666666668" fill="none" stroke="#080808" stroke-linecap="round" stroke-linejoin="round" stroke-width="4.17"></path><path d="m29.946875000000002 1.9964583333333334 0 15.971666666666668" fill="none" stroke="#080808" stroke-linecap="round" stroke-linejoin="round" stroke-width="4.17"></path><path d="m65.883125 1.9964583333333334 0 15.971666666666668" fill="none" stroke="#080808" stroke-linecap="round" stroke-linejoin="round" stroke-width="4.17"></path><path d="m1.9964583333333334 47.915000000000006 15.971666666666668 0" fill="none" stroke="#080808" stroke-linecap="round" stroke-linejoin="round" stroke-width="4.17"></path><path d="m1.9964583333333334 65.883125 15.971666666666668 0" fill="none" stroke="#080808" stroke-linecap="round" stroke-linejoin="round" stroke-width="4.17"></path><path d="m1.9964583333333334 29.946875000000002 15.971666666666668 0" fill="none" stroke="#080808" stroke-linecap="round" stroke-linejoin="round" stroke-width="4.17"></path><path d="m47.915000000000006 93.83354166666668 0 -15.971666666666668" fill="none" stroke="#080808" stroke-linecap="round" stroke-linejoin="round" stroke-width="4.17"></path><path d="m65.883125 93.83354166666668 0 -15.971666666666668" fill="none" stroke="#080808" stroke-linecap="round" stroke-linejoin="round" stroke-width="4.17"></path><path d="m29.946875000000002 93.83354166666668 0 -15.971666666666668" fill="none" stroke="#080808" stroke-linecap="round" stroke-linejoin="round" stroke-width="4.17"></path><path d="m93.83354166666668 47.915000000000006 -15.971666666666668 0" fill="none" stroke="#080808" stroke-linecap="round" stroke-linejoin="round" stroke-width="4.17"></path><path d="m93.83354166666668 29.946875000000002 -15.971666666666668 0" fill="none" stroke="#080808" stroke-linecap="round" stroke-linejoin="round" stroke-width="4.17"></path><path d="m93.83354166666668 65.883125 -15.971666666666668 0" fill="none" stroke="#080808" stroke-linecap="round" stroke-linejoin="round" stroke-width="4.17"></path><path d="M33.93979166666667 25.953958333333336h27.95041666666667s7.985833333333334 0 7.985833333333334 7.985833333333334v27.95041666666667s0 7.985833333333334 -7.985833333333334 7.985833333333334h-27.95041666666667s-7.985833333333334 0 -7.985833333333334 -7.985833333333334v-27.95041666666667s0 -7.985833333333334 7.985833333333334 -7.985833333333334" fill="#6a9c92" stroke-width="4.17"></path><path d="M61.890208333333334 25.953958333333336h-27.95041666666667a8.009790833333334 8.009790833333334 0 0 0 -7.985833333333334 7.985833333333334v11.978750000000002a8.009790833333334 8.009790833333334 0 0 1 7.985833333333334 -7.985833333333334h27.95041666666667a8.005797916666667 8.005797916666667 0 0 1 7.985833333333334 7.985833333333334v-11.978750000000002a8.005797916666667 8.005797916666667 0 0 0 -7.985833333333334 -7.985833333333334Z" fill="#6a9c92" stroke-width="4.17"></path><path d="M33.93979166666667 25.953958333333336h27.95041666666667s7.985833333333334 0 7.985833333333334 7.985833333333334v27.95041666666667s0 7.985833333333334 -7.985833333333334 7.985833333333334h-27.95041666666667s-7.985833333333334 0 -7.985833333333334 -7.985833333333334v-27.95041666666667s0 -7.985833333333334 7.985833333333334 -7.985833333333334" fill="none" stroke="#080808" stroke-linecap="round" stroke-linejoin="round" stroke-width="4.17"></path><path d="m37.93270833333334 37.93270833333334 15.971666666666668 0" fill="none" stroke="#080808" stroke-linecap="round" stroke-linejoin="round" stroke-width="4.17"></path><path d="m37.93270833333334 45.91854166666667 7.985833333333334 0" fill="none" stroke="#080808" stroke-linecap="round" stroke-linejoin="round" stroke-width="4.17"></path><path d="m49.911458333333336 57.89729166666667 7.985833333333334 0" fill="none" stroke="#080808" stroke-linecap="round" stroke-linejoin="round" stroke-width="4.17"></path></svg>